<svg xmlns="http://www.w3.org/2000/svg" viewBox="0 0 512 512">
  <rect width="512" height="512" rx="64" fill="#1976d2"/>
  <path d="M256 80c-97.2 0-176 78.8-176 176s78.8 176 176 176 176-78.8 176-176S353.2 80 256 80zm0 320c-79.4 0-144-64.6-144-144S176.6 112 256 112s144 64.6 144 144-64.6 144-144 144z" fill="#fff"/>
  <path d="M256 160c-53 0-96 43-96 96s43 96 96 96 96-43 96-96-43-96-96-96zm0 160c-35.3 0-64-28.7-64-64s28.7-64 64-64 64 28.7 64 64-28.7 64-64 64z" fill="#fff"/>
  <circle cx="256" cy="256" r="32" fill="#4caf50"/>
  <path d="M240 180v32h32v-32zM240 300v32h32v-32zM180 240v32h32v-32zM300 240v32h32v-32z" fill="#fff" opacity="0.7"/>
</svg>
